<!-- Generated by IcoMoon.io -->
<svg version="1.1" xmlns="http://www.w3.org/2000/svg" width="62" height="50" viewBox="0 0 62 50">
<title>camera</title>
<path fill="#ccba8d" d="M30.897 50.036c-8.131 0-16.262 0-24.392 0-0.027 0-0.058 0.001-0.090 0.001-3.543 0-6.415-2.872-6.415-6.415 0-0.032 0-0.063 0.001-0.095l-0 0.005q0.107-14.153 0-28.324c-0-0.011-0-0.023-0-0.036 0-3.553 2.88-6.433 6.433-6.433 0 0 0 0 0 0v0c16.333 0 32.648 0 48.981 0 0.082-0.004 0.178-0.006 0.275-0.006 3.395 0 6.147 2.752 6.147 6.147 0 0.103-0.003 0.205-0.008 0.306l0.001-0.014v28.36c0.007 0.109 0.011 0.236 0.011 0.365 0 3.395-2.752 6.147-6.147 6.147-0.104 0-0.208-0.003-0.311-0.008l0.015 0.001zM30.897 43.871c0.042 0 0.093 0.001 0.143 0.001 7.974 0 14.439-6.465 14.439-14.439s-6.465-14.439-14.439-14.439c-7.962 0-14.418 6.444-14.439 14.4v0.002c0.049 7.885 6.387 14.273 14.248 14.403l0.012 0zM12.384 19.049c-0.039-1.121-0.948-2.018-2.071-2.037h-0.002c-1.135 0-2.055 0.92-2.055 2.055s0.92 2.055 2.055 2.055v0c1.137-0.020 2.053-0.936 2.073-2.071l0-0.002z"></path>
<path fill="#ccba8d" d="M42.28 6.165h-22.748c0.357-1.43 0.679-2.806 1.036-4.182 0.078-1.13 1.014-2.017 2.157-2.017 0.134 0 0.266 0.012 0.393 0.036l-0.013-0.002h15.833c0.070-0.008 0.151-0.013 0.232-0.013 1.049 0 1.915 0.779 2.054 1.789l0.001 0.011c0.34 1.287 0.661 2.573 0.983 3.86 0.036 0.161 0.036 0.322 0.071 0.518z"></path>
<path fill="#ccba8d" d="M30.861 43.799c-7.959-0.021-14.402-6.477-14.402-14.439 0-7.974 6.465-14.439 14.439-14.439s14.439 6.465 14.439 14.439c0 0.050-0 0.1-0.001 0.151l0-0.008c-0.121 7.909-6.551 14.277-14.473 14.296h-0.002zM30.861 39.671c5.695-0 10.311-4.616 10.311-10.311s-4.616-10.311-10.311-10.311c-5.682 0-10.291 4.596-10.311 10.273v0.002c-0 0.021-0 0.047-0 0.072 0 5.675 4.6 10.275 10.275 10.275 0.038 0 0.076-0 0.113-0.001l-0.006 0z"></path>
<path fill="#bdae82" d="M12.384 19.049c-0.019 1.125-0.916 2.034-2.034 2.073l-0.004 0c-1.135 0-2.055-0.92-2.055-2.055s0.92-2.055 2.055-2.055v0c1.109 0.038 1.999 0.928 2.037 2.034l0 0.004z"></path>
<path fill="#ccba8d" d="M31.129 21.14c4.378 0.144 7.89 3.661 8.023 8.029l0 0.013c0.002 0.038 0.004 0.083 0.004 0.129 0 1.132-0.884 2.057-2 2.123l-0.006 0c-0.005 0-0.012 0-0.018 0-1.145 0-2.073-0.928-2.073-2.073 0-0 0-0 0-0v0c-0.039-2.252-1.844-4.069-4.087-4.128l-0.006-0c-0.017 0-0.036 0.001-0.056 0.001-1.125 0-2.037-0.912-2.037-2.037 0-0.032 0.001-0.063 0.002-0.095l-0 0.004c0.054-1.101 0.961-1.974 2.071-1.974 0.064 0 0.127 0.003 0.189 0.008l-0.008-0.001z"></path>
</svg>
