<!-- Generated by IcoMoon.io -->
<svg version="1.1" xmlns="http://www.w3.org/2000/svg" width="64" height="64" viewBox="0 0 64 64">
<title>ae122f443cc168ae8a8112064b05faf</title>
<path fill="#fff" d="M32 0.64c-17.318 0-31.36 14.042-31.36 31.36s14.042 31.36 31.36 31.36c17.318 0 31.36-14.042 31.36-31.36s-14.042-31.36-31.36-31.36zM32 58.458c-14.611 0-26.458-11.846-26.458-26.458s11.846-26.458 26.458-26.458 26.458 11.846 26.458 26.458-11.846 26.458-26.458 26.458z"></path>
<path fill="#fff" d="M43.763 39.84v3.923h-23.52v-3.923h-3.923v7.84h31.36v-7.84h-3.917z"></path>
<path fill="#fff" d="M33.958 32v-15.68h-3.923v15.68h-5.882l7.846 9.798 7.84-9.798h-5.882z"></path>
</svg>
