<!-- Generated by IcoMoon.io -->
<svg version="1.1" xmlns="http://www.w3.org/2000/svg" width="66" height="50" viewBox="0 0 66 50">
<title>image</title>
<path fill="#bdae82" d="M0 48.503v-47.006c0.362-0.888 1.22-1.503 2.22-1.503 0.060 0 0.12 0.002 0.179 0.007l-0.008-0h61.336c0.057-0.005 0.124-0.008 0.191-0.008 1.24 0 2.245 1.005 2.245 2.245 0 0.067-0.003 0.134-0.009 0.199l0.001-0.008c0 9.474 0 18.949 0 28.405 0 5.641 0 11.281 0 16.922 0.008 0.066 0.012 0.143 0.012 0.221 0 1.099-0.891 1.99-1.99 1.99-0.030 0-0.060-0.001-0.090-0.002l0.004 0h-61.446c-0.102 0.014-0.219 0.023-0.339 0.023-1.019 0-1.898-0.601-2.301-1.467l-0.007-0.016zM62.066 4.144h-57.941v27.948l0.639-0.438 11.227-8.050c0.397-0.398 0.945-0.644 1.552-0.644s1.155 0.246 1.552 0.644l0 0 11.793 8.452c1.825 1.314 3.651 2.629 5.476 3.907 0.332 0.256 0.753 0.411 1.211 0.411 0.901 0 1.662-0.598 1.907-1.419l0.004-0.014c0.051-0.17 0.080-0.365 0.080-0.568 0-0.773-0.425-1.447-1.055-1.8l-0.010-0.005q-3.815-2.683-7.466-5.385l-0.566-0.42 0.329-0.256 10.168-7.302c0.397-0.398 0.945-0.644 1.552-0.644s1.155 0.246 1.552 0.644l0 0 17.342 12.45 0.639 0.42z"></path>
<path fill="#ccba8d" d="M26.962 9.346c3.025 0 5.476 2.452 5.476 5.476v0c0.046 0.268 0.073 0.577 0.073 0.891 0 3.025-2.452 5.476-5.476 5.476s-5.476-2.452-5.476-5.476c0-0.315 0.027-0.623 0.078-0.924l-0.005 0.032c0-0.001 0-0.001 0-0.002 0-2.973 2.369-5.393 5.323-5.474l0.008-0z"></path>
</svg>
