<!-- Generated by IcoMoon.io -->
<svg version="1.1" xmlns="http://www.w3.org/2000/svg" width="32" height="32" viewBox="0 0 32 32">
<title>inst</title>
<path fill="#fff" d="M17.36 2.667c2.4 0 2.907 0.027 4.133 0.080 1.413 0.067 2.387 0.293 3.227 0.627 0.88 0.333 1.627 0.8 2.36 1.533 0.747 0.733 1.2 1.48 1.547 2.36 0.333 0.84 0.547 1.813 0.613 3.24 0.067 1.267 0.080 1.76 0.080 4.427v2.133c0 2.667-0.013 3.16-0.080 4.427-0.023 1.165-0.246 2.27-0.636 3.294l0.022-0.067c-0.347 0.88-0.8 1.627-1.533 2.36-0.747 0.747-1.493 1.2-2.373 1.547-0.84 0.333-1.813 0.547-3.227 0.613-1.267 0.067-1.773 0.080-4.44 0.080h-2.12c-2.667 0-3.16-0.013-4.44-0.080-1.165-0.023-2.27-0.246-3.294-0.636l0.067 0.022c-0.923-0.353-1.71-0.874-2.359-1.533l-0.001-0.001c-0.666-0.652-1.192-1.444-1.532-2.329l-0.015-0.045c-0.367-0.956-0.59-2.062-0.613-3.217l-0-0.010c-0.053-1.042-0.083-2.263-0.083-3.49 0-0.226 0.001-0.452 0.003-0.677l-0 0.034v-2.733c0-2.4 0.027-2.907 0.080-4.133 0.067-1.413 0.293-2.387 0.613-3.227 0.347-0.88 0.8-1.627 1.547-2.36 0.645-0.667 1.434-1.19 2.317-1.519l0.043-0.014c0.955-0.371 2.060-0.599 3.215-0.626l0.012-0c1.227-0.053 1.733-0.080 4.133-0.080zM17.387 5.067h-2.787c-2.307 0-2.8 0.027-4 0.080-1.293 0.053-2 0.267-2.467 0.453-0.627 0.24-1.067 0.533-1.533 1s-0.76 0.907-1 1.533c-0.173 0.467-0.4 1.173-0.453 2.48-0.053 1.2-0.080 1.68-0.080 4v2.773c0 2.32 0.027 2.8 0.080 4 0.053 1.293 0.267 2 0.453 2.467 0.24 0.627 0.533 1.067 1 1.533s0.907 0.76 1.533 1c0.467 0.187 1.173 0.4 2.48 0.453 1.293 0.067 1.76 0.080 4.64 0.080h1.48c2.893 0 3.347-0.013 4.653-0.080 1.293-0.053 2-0.267 2.467-0.453 0.627-0.24 1.067-0.533 1.533-1s0.76-0.907 1-1.533c0.187-0.467 0.4-1.173 0.453-2.467 0.067-1.307 0.080-1.76 0.080-4.653v-1.467c0-2.893-0.013-3.36-0.080-4.667-0.053-1.293-0.267-2-0.453-2.467-0.226-0.601-0.567-1.114-0.999-1.532l-0.001-0.001c-0.42-0.433-0.932-0.774-1.505-0.991l-0.028-0.009c-0.732-0.276-1.578-0.441-2.462-0.453l-0.005-0c-1.028-0.052-2.231-0.082-3.442-0.082-0.196 0-0.392 0.001-0.588 0.002l0.030-0zM16 9.147c3.781 0 6.847 3.065 6.847 6.847s-3.065 6.847-6.847 6.847v0c-3.781 0-6.847-3.065-6.847-6.847s3.065-6.847 6.847-6.847v0zM16 11.547c-2.456 0-4.447 1.991-4.447 4.447s1.991 4.447 4.447 4.447v0c2.456 0 4.447-1.991 4.447-4.447s-1.991-4.447-4.447-4.447v0zM23.107 7.28c0.884 0 1.6 0.716 1.6 1.6s-0.716 1.6-1.6 1.6v0c-0.884 0-1.6-0.716-1.6-1.6s0.716-1.6 1.6-1.6v0z"></path>
</svg>
