<!-- Generated by IcoMoon.io -->
<svg version="1.1" xmlns="http://www.w3.org/2000/svg" width="50" height="50" viewBox="0 0 50 50">
<title>logo</title>
<path fill="#fff" d="M20.459 5.018c-1.356 0.443-2.5 1.232-2.785 1.92l-0.12 0.289-1.88-0.009-0.244-0.509c-0.186-0.388-0.348-0.566-0.684-0.752l-0.439-0.244h-3.174c-4.163 0-4.688 0.21-4.688 1.88v0.47l-0.708 0.351c-2.61 1.293-4.655 3.847-5.463 6.821l-0.225 0.83v10.205c0 11.144-0.033 10.424 0.546 12.001 1.298 3.534 4.307 6.091 7.986 6.79 1.237 0.235 31.6 0.235 32.837 0 3.679-0.698 6.688-3.255 7.986-6.79 0.579-1.577 0.546-0.857 0.546-12.001v-10.205l-0.216-0.781c-1.132-4.087-4.032-6.873-8.133-7.817-0.613-0.141-1.418-0.176-4.948-0.213l-4.215-0.045-0.116-0.28c-0.286-0.69-1.513-1.52-2.865-1.937-1.065-0.329-7.975-0.309-8.998 0.026zM40.030 10.648c2.987 0.307 5.315 2.156 6.325 5.025l0.275 0.781 0.028 9.424c0.032 10.776 0.064 10.273-0.776 12.006-0.946 1.951-2.854 3.427-4.985 3.857-1.141 0.23-30.657 0.23-31.795-0-2.151-0.436-4.052-1.94-5.052-3.998-0.763-1.571-0.741-1.202-0.709-11.865l0.028-9.424 0.304-0.853c0.975-2.732 3.358-4.655 6.13-4.946 1.183-0.124 29.021-0.131 30.227-0.008zM9.547 11.727c-3.132 0.459-5.153 3.042-5.153 6.588v1.313h6.699l0.225-0.464c0.991-2.049 2.987-4.271 5.134-5.718 0.803-0.541 2.92-1.63 3.169-1.63 0.058 0 0.105-0.044 0.105-0.098 0-0.12-9.352-0.113-10.179 0.008zM30.273 11.693c0 0.046 0.165 0.142 0.366 0.213 3.064 1.077 6.798 4.458 8.072 7.308l0.186 0.415h6.709v-1.313c0-3.31-1.51-5.48-4.492-6.459-0.587-0.193-10.84-0.347-10.84-0.163zM24.072 12.364c-11.382 1.111-16.905 13.619-9.958 22.548 7.681 9.871 23.737 4.963 24.744-7.564 0.674-8.389-6.62-15.78-14.786-14.984zM26.66 15.833c6.556 0.941 10.643 8.114 8.148 14.302-2.874 7.129-12.096 8.957-17.38 3.444-7.009-7.313-0.83-19.19 9.232-17.746zM23.874 17.479c-5.899 0.833-9.301 6.857-6.97 12.345 2.676 6.299 11.649 7.080 15.457 1.346 4.167-6.274-1.079-14.736-8.487-13.691zM27.711 18.833c1.139 0.354 1.991 1.181 2.011 1.95 0.046 1.773-3.496 1.717-4.681-0.074-0.901-1.361 0.704-2.488 2.67-1.876zM22.705 32.339c1.079 0.228 2.686 1.215 2.686 1.649 0 1.014-3.627 0.359-4.686-0.846-0.732-0.834 0.159-1.192 2-0.803zM41.879 36.128c-2.015 0.625-1.625 3.428 0.476 3.421 2.137-0.007 2.296-3.154 0.174-3.447-0.215-0.030-0.507-0.018-0.65 0.027z"></path>
</svg>
