<!-- Generated by IcoMoon.io -->
<svg version="1.1" xmlns="http://www.w3.org/2000/svg" width="45" height="50" viewBox="0 0 45 50">
<title>image2vector-1</title>
<path fill="#fff" d="M17.646 7.007c-3.016 1.068-4.939 3.346-6.195 7.338-1.961 6.233-1.246 10.619 2.344 14.377 1.664 1.742 4.19 3.326 5.848 3.668 0.885 0.183 0.889 0.193 0.371 1.005-0.828 1.3-1.44 1.511-4.419 1.527-2.109 0.011-2.6-0.098-4.767-1.063-1.953-0.869-2.465-1.023-3.685-1.105-1.053-0.071-1.111-0.087-0.834-0.244 0.856-0.485 3.095-0.141 5.278 0.811 0.524 0.228 1.151 0.334 1.151 0.195 0-0.343-0.777-1.565-1.367-2.149-1.617-1.602-3.975-1.678-7.052-0.226-1.575 0.743-1.969 0.881-3.010 1.056l-0.893 0.15 0.714 0.703c1.715 1.687 3.89 2.185 6.964 1.592 1.559-0.3 1.82-0.261 3.69 0.562 0.818 0.36 1.783 0.714 2.143 0.786 0.791 0.158 0.784 0.153 0.603 0.372-0.281 0.339-1.245 0.549-2.695 0.587-2.471 0.065-3.657 0.973-4.046 3.096l-0.084 0.459 0.403-0.102c0.656-0.166 1.515-0.112 2.843 0.181 3.043 0.671 4.866-0.057 5.428-2.164 0.091-0.341 0.165-0.659 0.166-0.708 0.003-0.206-0.586-0.060-1.308 0.324-2 1.064-2.273 1.171-3.142 1.224-1.385 0.085-1.895-0.227-0.549-0.336 1.192-0.096 1.769-0.328 2.917-1.171 1.895-1.393 3.155-1.567 6.429-0.888 2.693 0.559 4.277 0.771 6.274 0.84l2.107 0.073 0.569 0.964c2.311 3.916 6.408 7.634 8.996 8.162 1.131 0.231 1.111 0.097-0.197-1.305-1.425-1.529-0.508-0.849 1.729 1.28 1.915 1.823 2.27 2.020 3.446 1.907 0.942-0.091 0.932-0.185-0.142-1.291-2.706-2.787-4.554-5.014-6.12-7.378l-0.99-1.494-1.288-0.274c-2.408-0.513-2.258-0.637 0.374-0.309 3.101 0.387 3.688-0.138 2.686-2.403l-0.244-0.55-1.576 0.101c-2.528 0.162-11.096 0.098-11.863-0.088l-0.644-0.156 0.681-0.803c0.829-0.978 0.748-0.977 1.736-0.023l0.808 0.78 3.731-0.009c2.052-0.005 3.773-0.052 3.824-0.103 0.094-0.094-1.264-2.868-1.711-3.495-0.189-0.266-0.331-0.334-0.69-0.334-4.017 0-8.945-2.953-10.794-6.467-0.327-0.621-0.499-1.243-0.25-0.904 3.239 4.416 9.485 7.171 15.587 6.874l0.802-0.039-1.225-2.024c-5.847-9.658-7.644-11.926-10.63-13.409-2.060-1.023-2.607-1.696-2.082-2.557 0.266-0.436 0.539-0.507 1.676-0.437 0.459 0.029 0.835 0.027 0.835-0.003 0-0.081-1.565-0.991-1.864-1.084-0.683-0.211-0.614-0.351 0.958-1.952 0.826-0.841 1.501-1.559 1.501-1.596 0-0.178-0.945 0.182-1.899 0.724-1.544 0.878-1.516 0.878-2.316 0.039-1.355-1.42-3.091-1.803-5.045-1.111zM23.309 33.032c0.063 0.063-0.472 0.964-0.802 1.35-0.199 0.233-0.329 0.269-0.855 0.238l-0.62-0.036 0.759-0.873c0.742-0.853 1.157-1.039 1.517-0.679z"></path>
</svg>
