<!-- Generated by IcoMoon.io -->
<svg version="1.1" xmlns="http://www.w3.org/2000/svg" width="156" height="128" viewBox="0 0 156 128">
<title>logo</title>
<path fill="#fff" d="M92.646 6.877c-3.744 0.95-6.681 2.671-10.34 6.059-2.645 2.448-2.653 2.406 0.739 3.894 4.968 2.179 8.692 4.748 11.733 8.093 1.932 2.125 1.324 1.938-2.427-0.746-2.997-2.145-8.011-4.915-11.309-6.247-1.894-0.765-6.566-1.086-7.951-0.545l-1.062 0.414 2.387 1.201c4.568 2.298 6.734 4.648 7.693 8.345 0.789 3.042-0.343 5.265-7.38 14.495-9.608 12.6-13.126 17.693-17.188 24.88-6.34 11.216-10.826 24.487-10.755 31.815l0.010 1.001 0.534-0.907c6.771-11.481 7.115-11.995 12.664-18.954 4.588-5.754 15.668-16.462 16.339-15.791 0.075 0.075-0.771 1.268-1.881 2.652-4.824 6.015-9.319 13.804-11.132 19.286-1.147 3.468-2.063 7.757-1.764 8.263 0.121 0.206 2.633 4.005 5.582 8.442l5.361 8.068h-40.59v4.351h92.395l2.12 1.217c12.837 7.37 13.912 7.923 15.533 7.976 2.644 0.087 2.002-0.466-5.418-4.66-3.881-2.194-7.063-4.111-7.072-4.261s5.205-0.272 11.587-0.272h11.604v-4.351h-41.738l-2.61-1.915c-3.038-2.23-12.781-9.115-14.662-10.362-1.196-0.793-1.435-0.826-3.291-0.453-1.1 0.221-2.83 0.404-3.844 0.407-1.659 0.005-1.762 0.050-1.034 0.453 0.827 0.458 2.275 1.37 11.157 7.033 2.792 1.78 5.647 3.594 6.346 4.031l1.269 0.794-27.335 0.012-2.469-3.838c-1.358-2.111-3.551-5.497-4.873-7.524-2.872-4.402-3.070-4.033 1.873-3.487 36.976 4.083 63.422-25.133 53.517-59.122-5.775-19.816-19.968-32.88-32.318-29.746zM103.796 16.026c0.853 0.987 0.799 2.063-0.154 3.078-1.967 2.094-5.259-0.295-3.901-2.831 0.803-1.501 2.863-1.626 4.055-0.247zM50.381 74.847c-0.287 0.273-4.275 2.906-8.862 5.851s-11.114 7.173-14.505 9.395c-3.39 2.222-6.934 4.52-7.875 5.109-5.601 3.502-16.621 10.781-16.828 11.117-0.177 0.285 2.349 0.342 8.995 0.202l9.241-0.194 2.871-1.787c19.54-12.163 21.734-13.629 21.805-14.567 0.103-1.363 2.696-8.502 4.342-11.956 1.614-3.387 1.799-4.102 0.816-3.169z"></path>
</svg>
