<!-- Generated by IcoMoon.io -->
<svg version="1.1" xmlns="http://www.w3.org/2000/svg" width="32" height="50" viewBox="0 0 32 50">
<title>mic</title>
<path fill="#ccba8d" d="M4.371 50v-2.898h10.216v-6.172c-8.196-0.817-14.549-7.658-14.587-15.992v-0.004h2.881c0.014 4.397 2.193 8.282 5.526 10.647l0.041 0.027c2.072 1.545 4.683 2.474 7.511 2.474 0.237 0 0.473-0.007 0.708-0.019l-0.033 0.001c6.993-0.339 12.543-6.060 12.606-13.091l0-0.006h2.898c0 0.033 0 0.072 0 0.111 0 4.15-1.607 7.925-4.233 10.737l0.008-0.009c-2.607 2.85-6.217 4.744-10.268 5.12l-0.063 0.005v6.090h10.249v2.947z"></path>
<path fill="#bdae82" d="M26.326 11.706v4.404h-7.286v2.914h7.269v4.388h-7.253v2.947h7.138c-0.719 5.010-4.982 8.818-10.134 8.818s-9.415-3.808-10.128-8.763l-0.006-0.055h7.171v-2.898h-7.236v-4.404h7.236v-2.931h-7.236v-4.371h7.236v-2.963h-7.138c0.765-4.96 5.004-8.714 10.119-8.714 5.109 0 9.344 3.745 10.109 8.64l0.007 0.058h-7.155v2.931z"></path>
</svg>
