<!-- Generated by IcoMoon.io -->
<svg version="1.1" xmlns="http://www.w3.org/2000/svg" width="254" height="254" viewBox="0 0 254 254">
<title>play3</title>
<path fill="#fff" d="M112.209 19.848c-0.841 0.203-4.973 0.928-9.181 1.61-79.032 12.819-116.413 109.221-67.485 174.036 15.237 20.184 50.228 43.039 51.961 33.939 0.217-1.137-1.866-2.575-7.036-4.858-21.21-9.368-40.403-27.824-50.875-48.92-38.034-76.618 27.038-163.321 112.012-149.247 12.765 2.115 14.982-2.293 2.472-4.916-5.694-1.194-28.796-2.385-31.868-1.643zM112.719 42.441c-14.943 2.202-34.172 9.853-34.172 13.597 0 2.905 2.158 2.68 10.045-1.047 43.201-20.411 95.797 1.922 111.446 47.322 26.011 75.463-59.858 139.343-125.061 93.034-36.232-25.733-44.587-76.844-18.577-113.647 6.902-9.766 3.27-13.895-3.778-4.294-43.425 59.158 1.913 142.717 75.175 138.546 73.956-4.21 109.316-92.829 58.424-146.419-18.657-19.646-48.755-30.74-73.501-27.094zM201.636 55.764c-1.517 1.517-0.358 4.232 4.498 10.541 36 46.77 24.213 116.679-25.216 149.569-22.273 14.82-41.829 18.928-78.399 16.469-3.444-0.232-4.081 0.032-4.081 1.692 0 7.539 43.772 5.495 65.475-3.059 63.64-25.081 88.732-106.043 50.371-162.531-7.279-10.718-10.94-14.389-12.649-12.68zM93.24 93.953c-1.809 1.998-1.964 4.341-2.241 33.859-0.455 48.527-5.285 47.060 53.309 16.191 28.556-15.045 28.716-14.573-12.24-36.057-32.021-16.797-35.238-17.957-38.828-13.993zM128.627 112.312c31.112 16.25 31.274 16.351 29.098 18.157-2.44 2.026-57.918 30.704-59.395 30.704-1.186 0-1.422-5.333-1.422-32.132 0-22.539 0.333-32.133 1.114-32.133 0.612 0 14.385 6.932 30.606 15.404z"></path>
</svg>
