<!-- Generated by IcoMoon.io -->
<svg version="1.1" xmlns="http://www.w3.org/2000/svg" width="60" height="50" viewBox="0 0 60 50">
<title>video</title>
<path fill="#bdae82" d="M59.843 1.307v47.474c-0.378 0.754-1.145 1.262-2.031 1.262-0.064 0-0.127-0.003-0.19-0.008l0.008 0.001h-55.436c-0.066 0.008-0.143 0.012-0.221 0.012-1.097 0-1.986-0.889-1.986-1.986 0-0.078 0.004-0.155 0.013-0.231l-0.001 0.009q0-22.84 0-45.679c-0.005-0.055-0.009-0.119-0.009-0.184 0-1.097 0.889-1.986 1.986-1.986 0.071 0 0.14 0.004 0.209 0.011l-0.009-0.001q27.735 0 55.436 0c0.075-0.009 0.162-0.015 0.251-0.015 0.887 0 1.648 0.539 1.974 1.307l0.005 0.014zM22.544 24.983v5.592c0.001 0.366 0.052 0.72 0.146 1.056l-0.007-0.028c0.355 0.9 1.218 1.525 2.226 1.525 0.51 0 0.983-0.16 1.371-0.433l-0.008 0.005c3.328-1.916 6.62-3.85 9.913-5.801 0.68-0.368 1.133-1.076 1.133-1.89s-0.454-1.522-1.122-1.885l-0.011-0.006c-3.293-2.021-6.672-3.955-10.052-5.906-0.353-0.22-0.782-0.351-1.241-0.351-1.309 0-2.369 1.061-2.369 2.369 0 0.050 0.002 0.1 0.005 0.149l-0-0.007c0.122 1.864 0.017 3.746 0.017 5.61zM9.443 6.551v-2.979h-5.871v2.979zM3.484 46.376h5.958v-2.927h-5.958zM18.833 3.571h-5.767v2.962h5.767zM22.456 3.571v2.962h5.784v-3.049zM37.613 6.551v-2.979h-5.767v2.962zM47.038 3.571h-5.819v2.962h5.819zM37.631 46.394v-2.84h-5.784v2.927zM18.815 46.394v-2.84h-5.767v2.927zM28.24 46.394v-2.84h-5.767v2.944zM47.038 43.449h-5.819v2.927h5.819zM56.289 6.551v-3.066h-5.662v3.066zM56.289 43.449h-5.662v2.944h5.679z"></path>
</svg>
